<?xml version="1.0" standalone="no"?>
<!DOCTYPE svg PUBLIC "-//W3C//DTD SVG 1.1//EN" "http://www.w3.org/Graphics/SVG/1.1/DTD/svg11.dtd" >
<svg xmlns="http://www.w3.org/2000/svg" xmlns:xlink="http://www.w3.org/1999/xlink" version="1.1">
<metadata></metadata>
<defs>
<font id="hurme_geometric_sans_1light" horiz-adv-x="1234" >
<font-face units-per-em="2048" ascent="1575" descent="-473" />
<missing-glyph horiz-adv-x="843" />
<glyph unicode="&#xfb01;" horiz-adv-x="970" d="M63 936v96h160v96q0 185 92 265q74 59 220 59q63 0 96 -8v-94q-36 8 -107 8q-103 0 -150.5 -52t-47.5 -165v-109h520v-1032h-103v936h-417v-936h-103v936h-160z" />
<glyph unicode="&#xfb02;" horiz-adv-x="980" d="M63 936v96h160v96q0 185 92 265q68 59 195 59q56 0 80 -8v-94q-31 8 -90 8q-91 0 -132.5 -52t-41.5 -165v-109h229v-96h-229v-936h-103v936h-160zM754 0v1427h102v-1427h-102z" />
<glyph unicode="&#xfb03;" horiz-adv-x="1490" d="M63 936v96h160v96q0 324 287 324q56 0 80 -8v-94q-31 8 -90 8q-91 0 -132.5 -52t-41.5 -165v-109h417v96q0 184 93 265q74 59 219 59q63 0 96 -8v-94q-36 8 -107 8q-103 0 -150.5 -52t-47.5 -165v-109h520v-1032h-102v936h-418v-936h-103v936h-417v-936h-103v936h-160z " />
<glyph unicode="&#xfb04;" horiz-adv-x="1501" d="M63 936v96h160v96q0 324 287 324q56 0 80 -8v-94q-31 8 -90 8q-91 0 -132.5 -52t-41.5 -165v-109h417v96q0 324 287 324q56 0 80 -8v-94q-31 8 -90 8q-91 0 -132.5 -52t-41.5 -165v-109h229v-96h-229v-936h-103v936h-417v-936h-103v936h-160zM1274 0v1427h102v-1427h-102 z" />
<glyph horiz-adv-x="0" />
<glyph horiz-adv-x="682" />
<glyph horiz-adv-x="0" />
<glyph horiz-adv-x="0" />
<glyph unicode="&#xd;" horiz-adv-x="0" />
<glyph unicode=" "  horiz-adv-x="843" />
<glyph unicode="&#x09;" horiz-adv-x="843" />
<glyph unicode="&#xa0;" horiz-adv-x="843" />
<glyph unicode="!" horiz-adv-x="456" d="M156 53q0 31 21 52.5t52 21.5q30 0 52 -22t22 -52t-22 -51.5t-52 -21.5t-51.5 21.5t-21.5 51.5zM164 1427h129l-21 -1110h-86z" />
<glyph unicode="&#x22;" horiz-adv-x="512" d="M98 1427h107l-19 -516h-71zM309 1427h107l-19 -516h-69z" />
<glyph unicode="#" horiz-adv-x="1089" d="M63 479v86h205l74 285h-186v86h209l53 215h96l-55 -215h286l56 215h94l-53 -215h184v-86h-207l-71 -285h188v-86h-211l-55 -219h-97l56 219h-287l-55 -219h-97l56 219h-183zM365 565h286l74 285h-289z" />
<glyph unicode="$" horiz-adv-x="1085" d="M80 309l100 45q43 -119 125.5 -190t196.5 -84v651q-172 79 -252 162t-80 231q0 137 92 226q96 93 240 102v201h90v-203q210 -24 305 -203l-90 -47q-70 129 -215 150v-547q213 -94 305 -189q92 -92 92 -258t-106.5 -269t-290.5 -110v-196h-90v201q-309 27 -422 327z M276 1124q0 -100 51.5 -160t174.5 -120v510q-101 -8 -163.5 -70.5t-62.5 -159.5zM592 78q145 7 218 85.5t73 192.5q0 118 -64 189t-227 145v-612z" />
<glyph unicode="%" horiz-adv-x="1476" d="M82 1130q0 132 94 226t225 94q132 0 226 -94t94 -226q0 -131 -94 -225t-226 -94q-131 0 -225 94t-94 225zM174 1130q0 -93 66 -165q68 -68 161 -68t158 68q68 71 68 165q0 96 -68 164q-64 70 -158 70t-161 -70q-66 -69 -66 -164zM223 0l924 1427h110l-923 -1427h-111z M756 297q0 133 92 225q94 94 227 94q134 0 225 -94q95 -92 95 -225q0 -132 -95 -227q-93 -93 -225 -93q-131 0 -227 93q-92 95 -92 227zM848 297q0 -95 65 -166q68 -68 162 -68q93 0 158 68q67 70 67 166q0 97 -67 164q-63 69 -158 69q-96 0 -162 -69q-65 -68 -65 -164z" />
<glyph unicode="&#x26;" horiz-adv-x="1499" d="M94 451q0 303 312 436q-62 115 -62 225q0 148 94 242q96 96 248 96q145 0 238 -90q94 -88 94 -223q0 -133 -94 -203h518v-96h-283v-109q0 -273 -82 -453l264 -276h-133l-184 190q-170 -215 -430 -215q-226 0 -363 131t-137 345zM197 451q0 -174 107 -276.5t290 -102.5 q239 0 356 194q-106 115 -205 217l-135 142q-76 79 -145 176q-268 -105 -268 -350zM446 1112q0 -172 226 -410l323 -342q62 148 62 369v109h-322v65q75 11 127.5 73.5t52.5 147.5q0 100 -65.5 165t-167.5 65q-97 0 -166.5 -65.5t-69.5 -176.5z" />
<glyph unicode="'" horiz-adv-x="301" d="M98 1427h107l-19 -516h-71z" />
<glyph unicode="(" horiz-adv-x="567" d="M102 633q0 567 457 969l53 -56q-405 -384 -405 -913q0 -530 405 -914l-53 -55q-457 402 -457 969z" />
<glyph unicode=")" horiz-adv-x="567" d="M-45 -281q405 384 405 914q0 529 -405 913l53 56q457 -402 457 -969t-457 -969z" />
<glyph unicode="*" horiz-adv-x="837" d="M121 1188l29 76l235 -93l-6 256h82l-6 -256l235 93l29 -76l-244 -80l164 -197l-66 -49l-153 205l-154 -205l-65 49l164 197z" />
<glyph unicode="+" horiz-adv-x="800" d="M94 666v96h254v274h105v-274h254v-96h-254v-277h-105v277h-254z" />
<glyph unicode="," horiz-adv-x="385" d="M-49 -262l192 489h138l-244 -489h-86z" />
<glyph unicode="-" horiz-adv-x="716" d="M92 489v97h535v-97h-535z" />
<glyph unicode="." horiz-adv-x="350" d="M102 63q0 30 22 52t52 22t52 -22t22 -52t-22 -51.5t-52 -21.5q-31 0 -52.5 21t-21.5 52z" />
<glyph unicode="/" horiz-adv-x="831" d="M10 -279l639 1760h101l-644 -1760h-96z" />
<glyph unicode="0" horiz-adv-x="1134" d="M90 715q0 245 6 309q18 187 152 309q136 121 319 121q185 0 318 -121q135 -120 153 -309q6 -65 6 -309q0 -247 -6 -312q-18 -186 -153 -309q-133 -121 -318 -121q-183 0 -319 121q-134 125 -152 309q-6 65 -6 312zM197 715q0 -243 6 -305q12 -149 116 -242 q107 -96 248 -96t248 96q105 94 117 242q6 62 6 305q0 242 -6 303q-12 148 -117 242q-107 96 -248 96t-248 -96q-104 -93 -116 -242q-6 -61 -6 -303z" />
<glyph unicode="1" horiz-adv-x="577" d="M70 1329v98h319v-1427h-106v1329h-213z" />
<glyph unicode="2" horiz-adv-x="1017" d="M6 0l684 805q111 132 111 258q0 122 -88 207q-86 86 -207 86q-122 0 -207 -88q-86 -89 -86 -211h-107q0 163 117 280t283 117q165 0 282 -117q119 -113 119 -276q0 -84 -25.5 -152t-99.5 -157l-557 -654h715v-98h-934z" />
<glyph unicode="3" horiz-adv-x="1134" d="M31 283l94 36q41 -115 150.5 -181t256.5 -66q180 0 293 104q115 109 115 275q0 159 -113 266q-114 108 -284 108q-143 0 -244 -43l492 547h-627v98h846l-471 -520q32 4 53 4q188 0 321 -133q131 -131 131 -327q0 -214 -145 -347q-143 -131 -367 -131q-178 0 -314 85 t-187 225z" />
<glyph unicode="4" horiz-adv-x="1150" d="M80 340l526 1087h115l-479 -989h637v338h106v-776h-106v340h-799z" />
<glyph unicode="5" horiz-adv-x="1120" d="M61 268l93 43q47 -108 149 -172.5t225 -64.5q167 0 281 114q117 114 117 283q0 164 -115 279q-114 114 -279 114q-114 0 -210 -44t-158 -111l127 718h639v-98h-547l-78 -426q80 62 227 62q207 0 353 -146q145 -145 145 -348q0 -210 -147 -354q-144 -144 -355 -144 q-154 0 -280.5 80t-186.5 215z" />
<glyph unicode="6" horiz-adv-x="1150" d="M90 467q0 36 10 88q12 52 22.5 81.5t39.5 80.5l43 74l57 86q13 18 57 84l312 466h127l-361 -532q68 53 193 53q197 0 336 -139q141 -138 141 -340q0 -209 -143 -352q-141 -144 -344 -144q-204 0 -349 142q-141 144 -141 352zM199 463q0 -165 108 -279q110 -110 273 -110 q161 0 270 112q113 113 113 277q0 162 -113 272q-110 113 -270 113q-165 0 -273 -111t-108 -274z" />
<glyph unicode="7" horiz-adv-x="1110" d="M74 1329v98h997l-686 -1427h-119l639 1329h-831z" />
<glyph unicode="8" horiz-adv-x="1093" d="M84 422q0 146 80 254.5t207 146.5q-80 35 -129 112t-49 169q0 146 102 248q105 102 252 102q148 0 250 -102q104 -101 104 -248q0 -92 -49 -169t-131 -112q127 -38 208 -147t81 -254q0 -185 -136 -318q-134 -131 -327 -131q-194 0 -328 131q-135 132 -135 318zM190 422 q0 -145 103 -248q103 -100 254 -100q152 0 252 100q104 101 104 248q0 145 -104 246q-100 100 -252 100q-151 0 -254 -100q-103 -103 -103 -246zM297 1104q0 -101 72 -176q75 -72 178 -72q101 0 176 72q74 74 74 176q0 105 -74 176q-71 74 -176 74q-104 0 -178 -74 q-72 -72 -72 -176z" />
<glyph unicode="9" horiz-adv-x="1136" d="M88 965q0 206 139 348q141 141 342 141q206 0 344 -141q138 -138 138 -342q0 -98 -39.5 -189.5t-132.5 -230.5l-373 -551h-127l369 543q-65 -47 -187 -47q-190 0 -332 133q-141 132 -141 336zM193 971q0 -158 108 -269q110 -110 268 -110q169 0 273 110t104 269 q0 162 -110 272q-108 111 -267 111q-157 0 -268 -111q-108 -111 -108 -272z" />
<glyph unicode=":" horiz-adv-x="352" d="M102 233q0 30 22 52t52 22t52 -22t22 -52t-22 -51.5t-52 -21.5q-31 0 -52.5 21t-21.5 52zM102 799q0 30 22 51.5t52 21.5t52 -21.5t22 -51.5t-22 -52t-52 -22q-31 0 -52.5 21.5t-21.5 52.5z" />
<glyph unicode=";" horiz-adv-x="411" d="M-35 -262l193 489h137l-244 -489h-86zM143 799q0 30 22 51.5t52 21.5t52 -21.5t22 -51.5t-22 -52t-52 -22q-31 0 -52.5 21.5t-21.5 52.5z" />
<glyph unicode="&#x3c;" horiz-adv-x="837" d="M45 729l686 438v-108l-518 -330l518 -328v-108z" />
<glyph unicode="=" horiz-adv-x="886" d="M94 532v97h701v-97h-701zM94 823v97h701v-97h-701z" />
<glyph unicode="&#x3e;" horiz-adv-x="837" d="M106 293v108l517 330l-517 330v106l685 -436z" />
<glyph unicode="?" horiz-adv-x="800" d="M102 1225v123q120 102 281 102q96 0 168.5 -30t105.5 -81q64 -90 64 -170q0 -59 -14 -102q-10 -41 -15 -56t-20 -39t-41 -50l-58 -56l-79 -61l-80 -60q-135 -102 -135 -194q0 -137 155 -137q79 0 137 37v-107q-63 -29 -137 -29q-119 0 -189.5 64t-70.5 172q0 142 164 262 q16 13 74 53l71 52l52 47q37 34 47 57q34 80 34 143q0 12 -2 26.5t-14.5 45.5t-35 54.5t-70 42t-111.5 18.5q-148 0 -281 -127zM318 72.5q15 41.5 52 51.5t70 -20q35 -29 20 -70t-52 -52t-70 18q-35 31 -20 72.5z" />
<glyph unicode="@" horiz-adv-x="1648" d="M86 598q0 296 211 516q212 221 526 221q300 0 520 -202q222 -201 222 -500q0 -207 -75 -315.5t-210 -108.5q-159 0 -203 164q-84 -146 -258 -146q-149 0 -252 103q-102 102 -102 256t102 256q104 104 252 104q162 0 244 -131v113h98v-459q0 -82 31.5 -123t87.5 -41 q182 0 182 328q0 251 -188 430q-186 180 -451 180q-263 0 -450 -190q-187 -187 -187 -455q0 -267 187 -457q188 -188 450 -188q154 0 307 84l48 -88q-166 -88 -355 -88q-140 -4 -275.5 53t-237.5 155t-164 237.5t-60 291.5zM565 586q0 -109 72 -187q73 -73 182 -73 q106 0 178 74t72 186q0 115 -71.5 189.5t-178.5 74.5q-109 0 -182 -76q-72 -78 -72 -188z" />
<glyph unicode="A" horiz-adv-x="1376" d="M72 0l616 1466l617 -1466h-109l-164 389h-688l-164 -389h-108zM387 487h602l-301 725z" />
<glyph unicode="B" horiz-adv-x="1204" d="M197 0v1427h426q157 0 260 -100q104 -101 104 -254q0 -107 -51.5 -187t-142.5 -110q134 -19 215.5 -121.5t81.5 -246.5q0 -175 -119 -291q-120 -117 -295 -117h-479zM303 98h367q135 0 223 88q90 90 90 222t-90 219q-88 88 -231 88h-359v-617zM303 813h311q115 0 191 73 t76 183q0 113 -75 186.5t-190 73.5h-313v-516z" />
<glyph unicode="C" horiz-adv-x="1439" d="M104 713q0 313 213 526q216 213 527 213q267 0 450 -149v-125q-183 174 -450 174q-270 0 -453 -183q-180 -180 -180 -456q0 -277 180 -457q182 -182 453 -182q267 0 450 174v-123q-184 -150 -450 -150q-313 0 -527 211q-213 213 -213 527z" />
<glyph unicode="D" horiz-adv-x="1476" d="M197 0v1427h432q339 0 538 -196t199 -518t-199 -518q-198 -195 -536 -195h-434zM303 98h320q303 0 469 166q165 168 165 449t-167 448q-165 168 -469 168h-318v-1231z" />
<glyph unicode="E" horiz-adv-x="1112" d="M197 0v1427h778v-98h-672v-524h633v-100h-633v-607h686v-98h-792z" />
<glyph unicode="F" horiz-adv-x="1009" d="M197 0v1427h704v-98h-598v-530h547v-99h-547v-700h-106z" />
<glyph unicode="G" horiz-adv-x="1509" d="M104 713q0 315 213 528q211 211 523 211q234 0 415 -123v-119q-183 142 -415 142q-268 0 -451 -183q-178 -181 -178 -456q0 -276 178 -457q182 -182 451 -182q255 0 432 157v433h-467v98h573v-569q-218 -218 -538 -218q-314 0 -525 211t-211 527z" />
<glyph unicode="H" horiz-adv-x="1452" d="M197 0v1427h106v-620h846v620h106v-1427h-106v709h-846v-709h-106z" />
<glyph unicode="I" horiz-adv-x="514" d="M205 0v1427h106v-1427h-106z" />
<glyph unicode="J" horiz-adv-x="651" d="M39 -8v104q49 -18 117 -18q112 0 156 70.5t44 224.5v1054h107v-1050q0 -97 -11.5 -162t-41.5 -123q-60 -117 -250 -117q-68 0 -121 17z" />
<glyph unicode="K" horiz-adv-x="1198" d="M197 0v1427h106v-665l678 665h137l-702 -690l723 -737h-142l-694 707v-707h-106z" />
<glyph unicode="L" horiz-adv-x="1005" d="M197 0v1427h106v-1329h615v-98h-721z" />
<glyph unicode="M" horiz-adv-x="1720" d="M197 0v1460l663 -1042l664 1042v-1460h-105v1110l-559 -872l-559 872v-1110h-104z" />
<glyph unicode="N" horiz-adv-x="1501" d="M197 0v1466l1001 -1218v1179h107v-1466l-1002 1219v-1180h-106z" />
<glyph unicode="O" horiz-adv-x="1683" d="M104 713q0 313 213 526t525 213q309 0 522 -213q215 -212 215 -526q0 -315 -215 -527q-211 -211 -522 -211q-314 0 -525 211q-213 213 -213 527zM209 713q0 -275 180 -455q182 -182 453 -182q269 0 448 182q180 180 180 455q0 274 -180 454q-182 185 -448 185 q-269 0 -451 -185q-182 -182 -182 -454z" />
<glyph unicode="P" horiz-adv-x="1140" d="M197 0v1427h413q189 0 308 -122q120 -123 120 -299q0 -184 -120 -304t-308 -120h-307v-582h-106zM303 680h303q148 0 236 94q90 96 90 232q0 133 -90 229q-88 94 -236 94h-303v-649z" />
<glyph unicode="Q" horiz-adv-x="1687" d="M104 713q0 313 213 526q216 213 527 213t524 -213q215 -212 215 -526q0 -317 -219 -527l164 -186h-125l-113 127q-196 -152 -446 -152q-313 0 -527 211q-213 213 -213 527zM213 713q0 -275 180 -455q182 -182 451 -182q218 0 381 129l-361 409h125l309 -350 q177 183 177 449q0 273 -181 454q-182 185 -450 185q-269 0 -451 -185q-180 -180 -180 -454z" />
<glyph unicode="R" horiz-adv-x="1210" d="M197 0v1427h456q179 0 297 -118q121 -118 121 -293q0 -141 -76 -250t-204 -150l346 -616h-117l-336 600q-8 -2 -43 -2h-338v-598h-106zM303 696h340q139 0 229 90q93 93 93 230q0 132 -91 223q-90 90 -225 90h-346v-633z" />
<glyph unicode="S" horiz-adv-x="1093" d="M102 158v133q175 -217 433 -217q162 0 254 75.5t92 194.5q0 72 -19.5 122t-68.5 93q-51 45 -105 76q-48 31 -158 88q-179 93 -266 180q-84 87 -84 215q0 153 105.5 243.5t287.5 90.5q174 0 281 -98v-123q-118 121 -285 121q-132 0 -207 -63.5t-75 -170.5q0 -91 63.5 -155 t224.5 -146q222 -113 318 -213q94 -94 94 -260q0 -155 -121 -264q-120 -105 -323 -105q-273 0 -441 183z" />
<glyph unicode="T" horiz-adv-x="1075" d="M70 1329v98h936v-98h-416v-1329h-107v1329h-413z" />
<glyph unicode="U" horiz-adv-x="1386" d="M186 473v954h107v-944q0 -195 106.5 -302t294.5 -107t295 107t107 302v944h106v-954q0 -236 -139 -369q-138 -129 -369 -129q-230 0 -368 129q-140 134 -140 369z" />
<glyph unicode="V" horiz-adv-x="1329" d="M78 1427h110l478 -1198l475 1198h110l-585 -1466z" />
<glyph unicode="W" horiz-adv-x="1929" d="M63 1427h103l366 -1153l433 1192l432 -1192l366 1153h103l-459 -1468l-442 1217l-443 -1217z" />
<glyph unicode="X" horiz-adv-x="1310" d="M94 0l490 739l-463 688h123l413 -610l414 610h123l-463 -688l490 -739h-121l-443 664l-442 -664h-121z" />
<glyph unicode="Y" horiz-adv-x="1224" d="M61 1427h119l432 -718l432 718h119l-497 -825v-602h-107v602z" />
<glyph unicode="Z" horiz-adv-x="1284" d="M55 0l971 1329h-809v98h1002l-971 -1329h940v-98h-1133z" />
<glyph unicode="[" horiz-adv-x="585" d="M180 -395v1822h404v-98h-297v-1626h297v-98h-404z" />
<glyph unicode="\" horiz-adv-x="833" d="M61 1481h99l641 -1760h-96z" />
<glyph unicode="]" horiz-adv-x="585" d="M4 -297h297v1626h-297v98h404v-1822h-404v98z" />
<glyph unicode="^" horiz-adv-x="1079" d="M55 717l486 764l483 -764h-109l-374 594l-377 -594h-109z" />
<glyph unicode="_" horiz-adv-x="620" d="M-4 -299h629v-96h-629v96z" />
<glyph unicode="`" horiz-adv-x="1116" d="M360 1427h134l122 -297h-81z" />
<glyph unicode="a" d="M80 516q0 232 149 387q150 156 371 156q149 0 262 -72q114 -71 148 -170v215h102v-1032h-102v215q-34 -102 -148 -172q-110 -70 -262 -70q-221 0 -371 156q-149 155 -149 387zM182 516q0 -191 119 -319q121 -127 299 -127q182 0 301 125q121 127 121 321q0 193 -121 320 t-301 127q-179 0 -299 -129q-119 -128 -119 -318z" />
<glyph unicode="b" d="M125 0v1427h102v-610q33 98 146 170q116 72 264 72q219 0 369 -156q151 -157 151 -387t-151 -387q-150 -156 -369 -156q-151 0 -264 70q-112 71 -146 172v-215h-102zM215 516q0 -194 121 -321q119 -125 301 -125q176 0 297 127q121 130 121 319q0 188 -121 318 q-120 129 -297 129q-180 0 -301 -127t-121 -320z" />
<glyph unicode="c" horiz-adv-x="1054" d="M78 516q0 229 158 387q156 156 387 156q207 0 352 -127v-117q-148 148 -352 148q-192 0 -318 -129q-125 -125 -125 -318q0 -191 125 -319q127 -127 318 -127q205 0 352 147v-117q-139 -127 -352 -127q-231 0 -387 156q-158 158 -158 387z" />
<glyph unicode="d" horiz-adv-x="1236" d="M80 516q0 232 149 387q150 156 371 156q149 0 262 -72q114 -71 148 -170v610h102v-1427h-102v215q-34 -102 -148 -172q-110 -70 -262 -70q-221 0 -371 156q-149 155 -149 387zM182 516q0 -191 119 -319q121 -127 299 -127q182 0 301 125q121 127 121 321q0 193 -121 320 t-301 127q-179 0 -299 -129q-119 -128 -119 -318z" />
<glyph unicode="e" horiz-adv-x="1144" d="M80 508v6q0 240 143 389q145 154 361 154q207 0 342 -150q137 -149 137 -364q0 -37 -2 -51h-881q3 -186 117 -306q112 -118 291 -118q127 0 228.5 44.5t158.5 114.5v-121q-150 -135 -387 -135q-222 0 -367 148q-141 150 -141 389zM184 584h770q-3 159 -110 266 q-108 111 -260 111q-162 0 -279 -111q-115 -109 -121 -266z" />
<glyph unicode="f" horiz-adv-x="622" d="M63 936v96h160v96q0 185 92 265q68 59 195 59q56 0 80 -8v-92q-38 6 -90 6q-91 0 -132.5 -52t-41.5 -165v-109h229v-96h-229v-936h-103v936h-160z" />
<glyph unicode="g" horiz-adv-x="1236" d="M80 520q0 231 149 383q150 156 371 156q146 0 254 -66.5t156 -177.5v217h102v-878q0 -190 -33 -300t-125 -184q-130 -106 -358 -106q-298 0 -446 139v119q137 -162 446 -162q187 0 293 86q121 100 121 352v127q-49 -113 -156.5 -181.5t-253.5 -68.5q-221 0 -371 156 q-149 155 -149 389zM182 520q0 -193 119 -321q121 -127 299 -127q182 0 301 125q121 127 121 319q0 193 -121 320t-301 127q-178 0 -299 -127q-119 -125 -119 -316z" />
<glyph unicode="h" horiz-adv-x="1087" d="M125 0v1427h102v-593q83 215 351 215q173 0 280 -113q107 -110 107 -299v-637h-103v616q0 153 -83.5 244.5t-223.5 91.5q-149 0 -238.5 -108.5t-89.5 -288.5v-555h-102z" />
<glyph unicode="i" horiz-adv-x="356" d="M105 1308.5q0 31.5 20 51.5q22 24 49 25q12 0 24 -5q42 -14 51 -52q2 -9 2 -19q0 -27 -22 -52q-20 -20 -50.5 -20t-53.5 20q-20 20 -20 51.5zM127 0v1032h102v-1032h-102z" />
<glyph unicode="j" horiz-adv-x="356" d="M-100 -319q44 -7 77 -7q80 0 115 42.5t35 140.5v1175h102v-1175q0 -279 -262 -279q-43 0 -67 6v97zM105 1308.5q0 31.5 20 51.5q22 24 49 24q11 0 24 -4q41 -15 51 -52q3 -10 3 -19q0 -27 -23 -52q-20 -20 -50.5 -20t-53.5 20q-20 20 -20 51.5z" />
<glyph unicode="k" horiz-adv-x="888" d="M125 0v1427h102v-856l463 461h129l-489 -487l536 -545h-131l-508 512v-512h-102z" />
<glyph unicode="l" horiz-adv-x="356" d="M127 0v1427h102v-1427h-102z" />
<glyph unicode="m" horiz-adv-x="1695" d="M125 0v1032h102v-198q80 215 324 215q118 0 199.5 -62.5t117.5 -175.5q74 238 359 238q158 0 252 -111.5t94 -300.5v-637h-103v616q0 155 -72.5 245.5t-197.5 90.5q-136 0 -218.5 -106.5t-82.5 -280.5v-565h-102v616q0 153 -75 244.5t-198 91.5q-135 0 -216 -108.5 t-81 -288.5v-555h-102z" />
<glyph unicode="n" horiz-adv-x="1107" d="M125 0v1032h102v-198q89 215 361 215q179 0 286 -113q111 -111 111 -299v-637h-102v616q0 153 -87.5 244.5t-230.5 91.5q-153 0 -245.5 -109t-92.5 -288v-555h-102z" />
<glyph unicode="o" horiz-adv-x="1241" d="M78 516q0 232 155 387q156 156 388 156q229 0 385 -156q157 -157 157 -387t-157 -387q-156 -156 -385 -156q-232 0 -388 156q-155 155 -155 387zM180 516q0 -191 125 -319q127 -127 316 -127q186 0 313 127q127 130 127 319q0 191 -127 318q-126 129 -313 129 q-190 0 -316 -129q-125 -125 -125 -318z" />
<glyph unicode="p" horiz-adv-x="1236" d="M125 -395v1427h102v-215q33 98 146 170q116 72 264 72q219 0 369 -156q151 -157 151 -387t-151 -387q-150 -156 -369 -156q-151 0 -264 70q-112 71 -146 172v-610h-102zM215 516q0 -194 121 -321q119 -125 301 -125q177 0 297 129q121 130 121 317q0 191 -121 318 q-120 129 -297 129q-180 0 -301 -127t-121 -320z" />
<glyph unicode="q" horiz-adv-x="1236" d="M80 516q0 232 149 387q150 156 371 156q149 0 262 -72q114 -71 148 -170v215h102v-1427h-102v610q-34 -102 -148 -172q-110 -70 -262 -70q-221 0 -371 156q-149 155 -149 387zM182 516q0 -189 119 -317q120 -129 299 -129q182 0 301 125q121 127 121 321q0 193 -121 320 t-301 127q-179 0 -299 -129q-119 -125 -119 -318z" />
<glyph unicode="r" horiz-adv-x="704" d="M125 0v1032h102v-207q76 224 351 224q39 0 49 -2v-107q-32 4 -66 4q-163 0 -248 -108q-86 -109 -86 -271v-565h-102z" />
<glyph unicode="s" horiz-adv-x="817" d="M68 115v123q126 -164 348 -164q116 0 181 48.5t65 133.5q0 49 -16.5 84t-59.5 66q-50 40 -76 51q-32 19 -113 59q-150 76 -210 137t-60 154q0 115 81 183.5t218 68.5t227 -72v-108q-90 84 -219 84q-98 0 -151.5 -41t-53.5 -115q0 -55 37 -93t133 -87l74 -39 q37 -18 72 -39q26 -13 59 -35q42 -23 58 -39q2 -2 13.5 -13t18.5 -18.5t17 -18.5t16.5 -22t9.5 -20q27 -64 27 -127q0 -108 -88 -193q-86 -86 -260 -86q-228 0 -348 138z" />
<glyph unicode="t" horiz-adv-x="598" d="M70 936v96h129v395h102v-395h242v-96h-242v-936h-102v936h-129z" />
<glyph unicode="u" horiz-adv-x="1077" d="M113 391v641h102v-631q0 -158 85 -242.5t239 -84.5t238.5 84.5t84.5 242.5v631h103v-641q0 -196 -114.5 -305t-311.5 -109t-311.5 109t-114.5 305z" />
<glyph unicode="v" horiz-adv-x="1034" d="M39 1032h111l366 -846l371 846h110l-481 -1085z" />
<glyph unicode="w" horiz-adv-x="1544" d="M39 1032h104l299 -819l330 870l328 -870l301 819h104l-403 -1085l-330 870l-330 -870z" />
<glyph unicode="x" horiz-adv-x="1009" d="M59 0l387 547l-354 485h117l295 -403l297 403h117l-355 -483l389 -549h-116l-330 465l-330 -465h-117z" />
<glyph unicode="y" horiz-adv-x="1028" d="M39 1032h106l357 -907l381 907h108l-606 -1427h-104l168 395z" />
<glyph unicode="z" horiz-adv-x="1011" d="M0 0l741 938h-630v94h825l-741 -938h718v-94h-913z" />
<glyph unicode="{" horiz-adv-x="620" d="M66 481v70q44 0 88 27q82 49 82 202v396q0 112 60.5 181.5t164.5 69.5h69v-81h-59q-133 0 -133 -168v-361q0 -184 -64 -248q-38 -38 -88 -53q50 -15 88 -53q64 -64 64 -248v-360q0 -168 133 -168h59v-82h-69q-104 0 -164.5 70t-60.5 182v395q0 154 -82 203q-42 26 -88 26 z" />
<glyph unicode="|" horiz-adv-x="473" d="M186 -51v1530h101v-1530h-101z" />
<glyph unicode="}" horiz-adv-x="620" d="M90 -313h60q133 0 133 168v360q0 185 63 248q38 38 88 53q-50 15 -88 53q-63 63 -63 248v361q0 168 -133 168h-60v81h70q104 0 164.5 -69.5t60.5 -181.5v-396q0 -153 82 -202q43 -27 88 -27v-70q-46 0 -88 -26q-82 -49 -82 -203v-395q0 -112 -60.5 -182t-164.5 -70h-70 v82z" />
<glyph unicode="~" horiz-adv-x="835" d="M74 637q11 72 62 116t126 44q67 0 170 -47q105 -48 154 -48q98 0 125 89l69 -7q-27 -168 -190 -168q-69 0 -174 48q-103 47 -152 47q-100 0 -121 -82z" />
<glyph unicode="&#xa1;" horiz-adv-x="456" d="M156 965q0 31 21 52t52 21q30 0 52 -21.5t22 -51.5t-22 -52t-52 -22q-29 0 -51 21.5t-22 52.5zM164 -412l22 1110h86l21 -1110h-129z" />
<glyph unicode="&#xa2;" horiz-adv-x="1105" d="M90 719q0 252 168 395q171 148 377 148q4 0 23 -1t22 -1l35 167h94l-41 -180q154 -35 260 -141l-63 -72q-90 93 -215 117l-189 -872q41 -9 78 -9q193 0 326 133l63 -71q-153 -156 -395 -156q-45 0 -92 8l-39 -184h-94l45 207q-161 52 -263 190q-100 135 -100 322z M193 719q0 -145 76 -257.5t204 -160.5l186 862q-6 2 -30 2q-187 -3 -312 -131q-124 -124 -124 -315z" />
<glyph unicode="&#xa3;" horiz-adv-x="1189" d="M90 0v92h12q191 3 281 96q94 94 94 228q0 78 -80 223h-217v98h160q-117 181 -117 307q0 168 119 287q121 121 289 121q166 0 287 -121q118 -118 118 -287h-104q0 130 -88 218q-89 92 -211 92q-126 0 -215 -92q-88 -88 -88 -218q0 -110 129 -307h323v-98h-270 q72 -135 72 -227q0 -110 -47.5 -192.5t-128.5 -121.5h679v-98h-997z" />
<glyph unicode="&#xa4;" horiz-adv-x="1341" d="M150 211l167 164q-114 126 -114 307q0 177 114 309l-167 164l69 68l158 -174q125 104 295 104t295 -104l157 174l70 -68l-168 -164q115 -133 115 -309q0 -180 -115 -307l168 -164l-70 -68q-128 140 -155 174q-125 -104 -297 -104t-297 104l-156 -174zM301 682 q0 -158 107 -268q108 -111 264 -111q154 0 262 111t108 268t-108 268q-107 113 -262 113q-157 0 -264 -113q-107 -110 -107 -268z" />
<glyph unicode="&#xa5;" horiz-adv-x="1212" d="M55 1427h119l434 -718l432 718h115l-326 -544h267v-99h-326l-111 -184h437v-100h-434v-500h-107v500h-436v100h436l-111 184h-325v99h266z" />
<glyph unicode="&#xa6;" horiz-adv-x="473" d="M186 0v602h101v-602h-101zM186 850v577h101v-577h-101z" />
<glyph unicode="&#xa7;" horiz-adv-x="1050" d="M72 608q0 109 57.5 185t163.5 108q-119 98 -119 246q0 133 96 223q94 88 244 88q157 0 248.5 -97.5t91.5 -254.5h-106q0 99 -56 176q-57 78 -178 78q-100 0 -166.5 -58.5t-66.5 -154.5q0 -99 65 -156q47 -38 62 -47q7 -4 36 -21t52 -30l88 -47l98 -53q100 -55 160 -109 q121 -112 121 -260q0 -107 -57.5 -184t-164.5 -109q119 -91 119 -246q0 -138 -98 -223q-94 -88 -242 -88q-157 0 -249.5 97.5t-92.5 254.5h107q0 -100 55 -176q57 -78 180 -78q101 0 167.5 58.5t66.5 154.5q0 56 -16 93.5t-56 68.5q-43 36 -72 51q-21 14 -100 56 q-228 114 -315 192q-123 108 -123 262zM178 608q0 -109 82 -182q76 -65 279 -172l96 -51q221 47 221 221q0 108 -84 180q-86 73 -278 176l-95 49q-221 -44 -221 -221z" />
<glyph unicode="&#xa8;" horiz-adv-x="1255" d="M345 1307q0 31 20 51q31 34 72.5 19.5t51.5 -52t-20 -72.5q-20 -20 -50.5 -20t-53.5 20q-20 23 -20 54zM766 1307q0 31 20 51q31 34 72.5 19.5t52 -52t-19.5 -72.5q-20 -20 -51 -20t-54 20q-20 23 -20 54z" />
<glyph unicode="&#xa9;" horiz-adv-x="1660" d="M94 713q0 307 215 522t522 215q306 0 521 -215q217 -214 217 -522q0 -307 -215 -525q-215 -215 -523 -215q-304 0 -522 215q-215 218 -215 525zM166 713q0 -283 192 -475q195 -195 473 -195q274 0 469 195q195 198 195 475q0 280 -195 475q-194 194 -469 194 q-279 0 -473 -194q-192 -192 -192 -475zM428 721q0 177 119 293q119 119 297 119q176 0 309 -127l-66 -72q-109 100 -243 100q-133 0 -223 -90q-89 -89 -89 -223q0 -136 89 -225q90 -90 223 -90q135 0 243 102l66 -76q-125 -125 -309 -125q-178 0 -297 119t-119 295z" />
<glyph unicode="&#xaa;" horiz-adv-x="1001" d="M160 866q0 105 78.5 166.5t224.5 67.5q114 5 157.5 29.5t43.5 91.5q0 65 -52.5 102t-128.5 37q-132 0 -202 -119l-62 47q89 154 264 154q120 0 191 -61t71 -160v-433q0 -55 39 -55q25 0 41 4v-67q-29 -13 -63 -13q-46 0 -70 37q-18 27 -18 60q-70 -107 -256 -107 q-118 0 -188 59.5t-70 159.5zM242 868q0 -64 48 -102.5t134 -38.5q116 0 178 51.5t62 139.5v155q-41 -47 -201 -53q-221 -6 -221 -152z" />
<glyph unicode="&#xab;" horiz-adv-x="757" d="M80 518l225 359h109l-226 -359l226 -358h-109zM346 518l225 359h109l-225 -359l225 -358h-109z" />
<glyph unicode="&#xac;" horiz-adv-x="1126" d="M94 782v97h940v-486h-104v389h-836z" />
<glyph unicode="&#xad;" horiz-adv-x="716" d="M92 489v97h535v-97h-535z" />
<glyph unicode="&#xae;" horiz-adv-x="827" d="M86 1128q0 141 94 232q95 92 232 92q138 0 233 -92q96 -93 96 -232q0 -138 -96 -231q-95 -92 -233 -92q-137 0 -232 92q-94 91 -94 231zM141 1128q0 -118 77 -194t194 -76q119 0 196.5 76t77.5 194q0 121 -77.5 198t-196.5 77q-118 0 -194.5 -77t-76.5 -198zM295 948v375 h131q53 0 86 -33.5t33 -83.5q0 -73 -66 -108l90 -150h-67l-84 137h-66v-137h-57zM352 1137h72q26 0 43.5 19t17.5 48q0 27 -17.5 45.5t-43.5 18.5h-72v-131z" />
<glyph unicode="&#xaf;" horiz-adv-x="1284" d="M342 1331v96h602v-96h-602z" />
<glyph unicode="&#xb0;" horiz-adv-x="716" d="M106 1184q0 102 74 176t178 74q105 0 179 -74q73 -73 73 -176t-73 -176q-74 -74 -179 -74q-104 0 -178 74t-74 176zM205 1184q0 -63 45 -110.5t108 -47.5q61 0 107.5 47.5t46.5 110.5t-46 110t-108 47q-63 0 -108 -45.5t-45 -111.5z" />
<glyph unicode="&#xb1;" horiz-adv-x="800" d="M94 45v96h613v-96h-613zM94 666v96h254v274h105v-274h254v-96h-254v-277h-105v277h-254z" />
<glyph unicode="&#xb2;" horiz-adv-x="686" d="M72 672l362 438q51 63 51 119q0 57 -39.5 97t-95.5 40q-57 0 -97 -44.5t-40 -104.5h-82q0 96 63 161.5t156 65.5q90 0 154 -64q65 -65 65 -151q0 -92 -67 -168l-266 -311h352v-78h-516z" />
<glyph unicode="&#xb3;" horiz-adv-x="724" d="M76 834l74 28q24 -58 75.5 -92.5t118.5 -34.5q88 0 143.5 50.5t55.5 129.5q0 74 -54.5 123t-140.5 49q-90 0 -149 -24l252 287h-312v77h475l-241 -272h14q99 0 167.5 -69t68.5 -171q0 -115 -78.5 -187.5t-200.5 -72.5q-91 0 -164 49.5t-104 129.5z" />
<glyph unicode="&#xb4;" horiz-adv-x="1116" d="M500 1130l123 297h133l-174 -297h-82z" />
<glyph unicode="&#xb5;" horiz-adv-x="1077" d="M113 -395v1427h102v-555q0 -181 91.5 -290t244.5 -109q142 0 227.5 91.5t85.5 246.5v616h103v-637q0 -188 -107.5 -299.5t-286.5 -111.5q-269 0 -358 215v-594h-102z" />
<glyph unicode="&#xb6;" horiz-adv-x="993" d="M66 1004q0 177 122 299q121 124 299 124h480v-98h-138v-1329h-106v1329h-152v-1329h-106v580q-166 9 -285 131q-114 123 -114 293z" />
<glyph unicode="&#xb7;" horiz-adv-x="342" d="M98 516q0 31 21.5 52.5t52.5 21.5q29 0 50.5 -21.5t21.5 -52.5t-21.5 -52.5t-50.5 -21.5q-31 0 -52.5 21t-21.5 53z" />
<glyph unicode="&#xb8;" horiz-adv-x="1097" d="M401 -330l31 58q53 -35 103 -35q37 0 61.5 18.5t24.5 48.5q0 82 -119 82q-25 0 -31 -2l70 160h80l-50 -111h13q52 0 87.5 -35.5t35.5 -91.5q0 -137 -170 -137q-79 0 -136 45z" />
<glyph unicode="&#xb9;" horiz-adv-x="460" d="M104 1350v77h183v-755h-84v678h-99z" />
<glyph unicode="&#xba;" horiz-adv-x="948" d="M76 1049q0 166 117 280q117 117 282 117q166 0 283 -117q116 -113 116 -280t-116 -283q-118 -115 -283 -115q-164 0 -282 115q-117 117 -117 283zM168 1049q0 -127 90 -220q89 -92 217 -92q125 0 215 90q90 93 90 222q0 126 -90 219q-89 92 -215 92q-128 0 -217 -92 q-90 -93 -90 -219z" />
<glyph unicode="&#xbb;" horiz-adv-x="757" d="M80 160l225 358l-225 359h108l226 -359l-226 -358h-108zM348 160l225 358l-225 359h107l225 -359l-225 -358h-107z" />
<glyph unicode="&#xbc;" horiz-adv-x="1341" d="M115 1350v77h182v-755h-84v678h-98zM121 0l837 1427h109l-840 -1427h-106zM666 166l286 590h86l-245 -512h327v168h84v-412h-84v166h-454z" />
<glyph unicode="&#xbd;" horiz-adv-x="1398" d="M115 1350v77h182v-755h-84v678h-98zM121 0l837 1427h109l-840 -1427h-106zM764 0l362 438q52 64 52 119q0 57 -40 97t-96 40q-57 0 -97 -44.5t-40 -104.5h-82q0 96 63 161.5t156 65.5q91 0 154 -63q66 -66 66 -152q0 -91 -68 -168l-266 -311h352v-78h-516z" />
<glyph unicode="&#xbe;" horiz-adv-x="1587" d="M90 834l74 28q24 -58 75.5 -92.5t118.5 -34.5q88 0 143.5 50.5t55.5 129.5q0 74 -54.5 123t-140.5 49q-90 0 -149 -24l252 287h-311v77h475l-242 -272h14q99 0 167.5 -69t68.5 -171q0 -115 -78.5 -187.5t-200.5 -72.5q-91 0 -164 49.5t-104 129.5zM377 0l837 1427h109 l-840 -1427h-106zM913 166l285 590h86l-246 -512h328v168h84v-412h-84v166h-453z" />
<glyph unicode="&#xbf;" horiz-adv-x="800" d="M80 -154q0 56 12 103q12 42 16.5 56t20 38.5t41.5 50.5q45 45 55 53q15 16 80 62l82 61q135 102 135 195q0 137 -155 137q-80 0 -138 -37v107q61 28 138 28q119 0 189.5 -63.5t70.5 -171.5q0 -142 -164 -262q-16 -13 -74 -53q-33 -23 -72 -54q-6 -4 -51 -45 q-37 -34 -47 -57q-35 -82 -35 -144q0 -11 2 -26t15 -46t35.5 -54t70 -41.5t111.5 -18.5q147 0 280 127v-123q-120 -102 -280 -102q-96 0 -168.5 29.5t-108.5 80.5q-61 94 -61 170zM340.5 983.5q15.5 41.5 52.5 52t70 -19.5q34 -29 19.5 -70t-52 -52.5t-72.5 17.5 q-33 31 -17.5 72.5z" />
<glyph unicode="&#xc0;" horiz-adv-x="1378" d="M72 0l616 1466l617 -1466h-109l-164 389h-688l-164 -389h-108zM387 487h602l-301 725zM483 1823h133l123 -297h-82z" />
<glyph unicode="&#xc1;" horiz-adv-x="1378" d="M72 0l616 1466l617 -1466h-109l-164 389h-688l-164 -389h-108zM387 487h602l-301 725zM651 1526l123 297h133l-172 -297h-84z" />
<glyph unicode="&#xc2;" horiz-adv-x="1378" d="M72 0l616 1466l617 -1466h-109l-164 389h-688l-164 -389h-108zM373 1575l315 287l318 -287h-125l-193 184l-190 -184h-125zM387 487h602l-301 725z" />
<glyph unicode="&#xc3;" horiz-adv-x="1378" d="M72 0l616 1466l617 -1466h-109l-164 389h-688l-164 -389h-108zM387 487h602l-301 725zM391 1573q11 73 56 117.5t110 44.5q61 0 135 -45q77 -45 121 -45q84 0 105 96l67 -6q-21 -176 -168 -176q-65 0 -139 45t-117 45q-82 0 -100 -82z" />
<glyph unicode="&#xc4;" horiz-adv-x="1378" d="M72 0l616 1466l617 -1466h-109l-164 389h-688l-164 -389h-108zM387 487h602l-301 725zM404 1622.5q0 30.5 20 50.5q31 34 72.5 19.5t51.5 -51.5t-20 -72q-20 -20 -50.5 -20t-53.5 20q-20 23 -20 53.5zM825 1622q0 31 21.5 52.5t52.5 21.5q30 0 52 -22t22 -52t-22 -52 t-52 -22q-31 0 -52.5 21.5t-21.5 52.5z" />
<glyph unicode="&#xc5;" horiz-adv-x="1378" d="M72 0l579 1393q-55 12 -92 58t-37 103q0 68 49.5 117t118.5 49t117.5 -49t48.5 -117q0 -60 -37 -104.5t-94 -56.5l580 -1393h-113l-162 389h-684l-164 -389h-110zM389 487h600l-301 738zM598 1554q0 -37 27.5 -64.5t64.5 -27.5q35 0 62.5 27.5t27.5 64.5q0 36 -27 63.5 t-63 27.5q-37 0 -64.5 -27t-27.5 -64z" />
<glyph unicode="&#xc6;" horiz-adv-x="1888" d="M4 0l1096 1427h653v-98h-575v-524h536v-100h-536v-607h589v-98h-696v375h-651l-289 -375h-127zM494 473h577v752z" />
<glyph unicode="&#xc7;" horiz-adv-x="1439" d="M104 713q0 313 213 526q216 213 527 213q267 0 450 -149v-125q-183 174 -450 174q-270 0 -453 -183q-180 -180 -180 -456q0 -277 180 -457q182 -182 453 -182q267 0 450 174v-123q-184 -150 -450 -150h-37l-37 -86h12q52 0 87.5 -35.5t35.5 -91.5q0 -137 -170 -137 q-81 0 -135 45l31 58q53 -35 102 -35q37 0 61.5 18.5t24.5 48.5q0 82 -119 82q-24 0 -30 -2l61 144q-273 41 -450 241q-177 204 -177 488z" />
<glyph unicode="&#xc8;" horiz-adv-x="1112" d="M197 0v1427h778v-98h-672v-524h633v-100h-633v-607h686v-98h-792zM401 1823h136l120 -297h-82z" />
<glyph unicode="&#xc9;" horiz-adv-x="1112" d="M197 0v1427h778v-98h-672v-524h633v-100h-633v-607h686v-98h-792zM518 1526l123 297h133l-174 -297h-82z" />
<glyph unicode="&#xca;" horiz-adv-x="1112" d="M197 0v1427h778v-98h-672v-524h633v-100h-633v-607h686v-98h-792zM270 1575l316 287l317 -287h-125l-192 184l-193 -184h-123z" />
<glyph unicode="&#xcb;" horiz-adv-x="1112" d="M197 0v1427h778v-98h-672v-524h633v-100h-633v-607h686v-98h-792zM305 1646.5q0 30.5 21 51.5q31 34 72.5 19.5t51.5 -52t-20 -72.5q-23 -20 -51 -20t-51 20q-23 23 -23 53.5zM727 1647q0 31 21.5 52t52.5 21q30 0 51.5 -21.5t21.5 -51.5q0 -31 -22 -52.5t-51 -21.5 q-30 0 -52 22t-22 52z" />
<glyph unicode="&#xcc;" horiz-adv-x="514" d="M43 1823h133l123 -297h-82zM205 0v1427h106v-1427h-106z" />
<glyph unicode="&#xcd;" horiz-adv-x="514" d="M205 0v1427h106v-1427h-106zM213 1526l123 297h133l-174 -297h-82z" />
<glyph unicode="&#xce;" horiz-adv-x="516" d="M-43 1575l301 287l301 -287h-125l-176 180l-178 -180h-123zM205 0v1427h106v-1427h-106z" />
<glyph unicode="&#xcf;" horiz-adv-x="514" d="M4 1646.5q0 30.5 21 51.5q31 34 72.5 19.5t51.5 -52t-20 -72.5q-23 -20 -51 -20t-51 20q-23 23 -23 53.5zM205 0v1427h106v-1427h-106zM362 1646.5q0 30.5 21 51.5q31 34 72.5 19.5t51.5 -52t-20 -72.5q-23 -20 -51 -20t-51 20q-23 23 -23 53.5z" />
<glyph unicode="&#xd0;" horiz-adv-x="1470" d="M72 684v100h125v643h432q339 0 538 -196t199 -518t-199 -518q-198 -195 -536 -195h-434v684h-125zM303 98h320q304 0 469 168q168 168 168 447q0 280 -168 448q-165 168 -471 168h-318v-545h297v-100h-297v-586z" />
<glyph unicode="&#xd1;" horiz-adv-x="1501" d="M197 0v1466l1001 -1218v1179h107v-1466l-1002 1219v-1180h-106zM453 1573q11 73 55.5 117.5t109.5 44.5q62 0 136 -45t120 -45q84 0 105 96l68 -6q-21 -176 -168 -176q-64 0 -138 45t-118 45q-86 0 -101 -82z" />
<glyph unicode="&#xd2;" horiz-adv-x="1683" d="M104 713q0 313 213 526t525 213q309 0 522 -213q215 -212 215 -526q0 -315 -215 -527q-211 -211 -522 -211q-314 0 -525 211q-213 213 -213 527zM209 713q0 -275 180 -455q182 -182 453 -182q269 0 448 182q180 180 180 455q0 274 -180 454q-182 185 -448 185 q-269 0 -451 -185q-182 -182 -182 -454zM631 1823h133l123 -297h-82z" />
<glyph unicode="&#xd3;" horiz-adv-x="1683" d="M104 713q0 313 213 526t525 213q309 0 522 -213q215 -212 215 -526q0 -315 -215 -527q-211 -211 -522 -211q-314 0 -525 211q-213 213 -213 527zM209 713q0 -275 180 -455q182 -182 453 -182q269 0 448 182q180 180 180 455q0 274 -180 454q-182 185 -448 185 q-269 0 -451 -185q-182 -182 -182 -454zM774 1526l123 297h133l-174 -297h-82z" />
<glyph unicode="&#xd4;" horiz-adv-x="1683" d="M104 713q0 313 213 526t525 213q309 0 522 -213q215 -212 215 -526q0 -315 -215 -527q-211 -211 -522 -211q-314 0 -525 211q-213 213 -213 527zM209 713q0 -275 180 -455q182 -182 453 -182q269 0 448 182q180 180 180 455q0 274 -180 454q-182 185 -448 185 q-269 0 -451 -185q-182 -182 -182 -454zM524 1575l318 287l315 -287h-125l-190 184l-193 -184h-125z" />
<glyph unicode="&#xd5;" horiz-adv-x="1683" d="M104 713q0 313 213 526t525 213q309 0 522 -213q215 -212 215 -526q0 -315 -215 -527q-211 -211 -522 -211q-314 0 -525 211q-213 213 -213 527zM209 713q0 -275 180 -455q182 -182 453 -182q269 0 448 182q180 180 180 455q0 274 -180 454q-182 185 -448 185 q-269 0 -451 -185q-182 -182 -182 -454zM543 1573q11 73 55 117.5t111 44.5q61 0 135 -45t121 -45q83 0 104 96l70 -6q-21 -176 -170 -176q-64 0 -138 45t-120 45q-84 0 -99 -82z" />
<glyph unicode="&#xd6;" horiz-adv-x="1683" d="M104 713q0 313 213 526t525 213q309 0 522 -213q215 -212 215 -526q0 -315 -215 -527q-211 -211 -522 -211q-314 0 -525 211q-213 213 -213 527zM209 713q0 -275 180 -455q182 -182 453 -182q269 0 448 182q180 180 180 455q0 274 -180 454q-182 185 -448 185 q-269 0 -451 -185q-182 -182 -182 -454zM559 1622q0 32 21 53t51 21q31 0 52.5 -21.5t21.5 -52.5t-21.5 -52.5t-52.5 -21.5q-30 0 -51 21t-21 53zM979 1622.5q0 30.5 20 50.5q31 34 72.5 19.5t52 -51.5t-19.5 -72q-20 -20 -51 -20t-54 20q-20 23 -20 53.5z" />
<glyph unicode="&#xd7;" horiz-adv-x="800" d="M100 446l238 236l-236 236l62 65l237 -240l234 240l63 -65l-233 -236l235 -236l-63 -65l-236 237l-237 -237z" />
<glyph unicode="&#xd8;" horiz-adv-x="1683" d="M104 713q0 313 213 526t525 213q227 0 413 -125l121 162l78 -59l-121 -162q246 -214 246 -555q0 -315 -215 -527q-211 -211 -522 -211q-220 0 -396 111l-116 -156l-78 58l115 153q-125 104 -194 252.5t-69 319.5zM209 713q0 -308 217 -492l770 1024q-155 107 -354 107 q-269 0 -451 -185q-182 -182 -182 -454zM506 166q153 -90 336 -90q269 0 448 182q180 180 180 455q0 287 -198 473z" />
<glyph unicode="&#xd9;" horiz-adv-x="1386" d="M186 477v950h107v-940q0 -195 106.5 -302t294.5 -107t295 107t107 302v940h106v-950q0 -235 -139 -368q-138 -129 -369 -129q-230 0 -368 129q-140 134 -140 368zM502 1823h135l121 -297h-82z" />
<glyph unicode="&#xda;" horiz-adv-x="1386" d="M186 477v950h107v-940q0 -195 106.5 -302t294.5 -107t295 107t107 302v940h106v-950q0 -235 -139 -368q-138 -129 -369 -129q-230 0 -368 129q-140 134 -140 368zM633 1526l123 297h133l-174 -297h-82z" />
<glyph unicode="&#xdb;" horiz-adv-x="1386" d="M186 477v950h107v-940q0 -195 106.5 -302t294.5 -107t295 107t107 302v940h106v-950q0 -235 -139 -368q-138 -129 -369 -129q-230 0 -368 129q-140 134 -140 368zM377 1575l317 287l316 -287h-123l-193 184l-192 -184h-125z" />
<glyph unicode="&#xdc;" horiz-adv-x="1386" d="M186 477v950h107v-940q0 -195 106.5 -302t294.5 -107t295 107t107 302v940h106v-950q0 -235 -139 -368q-138 -129 -369 -129q-230 0 -368 129q-140 134 -140 368zM410 1622.5q0 30.5 20 50.5q31 34 72.5 19.5t52 -51.5t-19.5 -72q-20 -20 -51 -20t-54 20q-20 23 -20 53.5 zM832 1622.5q0 30.5 20 50.5q31 34 72.5 19.5t51.5 -51.5t-20 -72q-20 -20 -50.5 -20t-53.5 20q-20 23 -20 53.5z" />
<glyph unicode="&#xdd;" horiz-adv-x="1224" d="M61 1427h119l432 -718l432 718h119l-497 -825v-602h-107v602zM545 1526l123 297h133l-174 -297h-82z" />
<glyph unicode="&#xde;" horiz-adv-x="954" d="M197 0v1427h106v-317h143q191 0 306 -115q112 -112 112 -290q0 -174 -110 -287t-299 -113h-152v-305h-106zM303 406h143q142 0 227 83t85 220q0 136 -84.5 218.5t-229.5 82.5h-141v-604z" />
<glyph unicode="&#xdf;" horiz-adv-x="1116" d="M123 0v1116q0 137 96 238q98 98 238 98q139 0 235 -96t96 -236q0 -160 -120 -248q149 -9 264 -133q115 -121 115 -303q0 -198 -140 -332q-139 -133 -346 -133q-35 0 -106 11v104q59 -16 106 -16q159 0 268 106q111 108 111 260q0 149 -106 252q-104 107 -265 107h-22 q-39 -3 -92 -15v94q106 15 166 78q63 63 63 164q0 97 -68 168q-64 70 -159 70t-162 -70q-66 -72 -66 -168v-1116h-106z" />
<glyph unicode="&#xe0;" d="M80 516q0 232 149 387q150 156 371 156q149 0 262 -72q114 -71 148 -170v215h102v-1032h-102v215q-34 -102 -148 -172q-110 -70 -262 -70q-221 0 -371 156q-149 155 -149 387zM182 516q0 -191 119 -319q121 -127 299 -127q182 0 301 125q121 127 121 321q0 193 -121 320 t-301 127q-179 0 -299 -129q-119 -128 -119 -318zM418 1427h135l123 -297h-84z" />
<glyph unicode="&#xe1;" d="M80 516q0 232 149 387q150 156 371 156q149 0 262 -72q114 -71 148 -170v215h102v-1032h-102v215q-34 -102 -148 -172q-110 -70 -262 -70q-221 0 -371 156q-149 155 -149 387zM182 516q0 -191 119 -319q121 -127 299 -127q182 0 301 125q121 127 121 321q0 193 -121 320 t-301 127q-179 0 -299 -129q-119 -128 -119 -318zM545 1130l123 297h135l-174 -297h-84z" />
<glyph unicode="&#xe2;" d="M80 516q0 232 149 387q150 156 371 156q149 0 262 -72q114 -71 148 -170v215h102v-1032h-102v215q-34 -102 -148 -172q-110 -70 -262 -70q-221 0 -371 156q-149 155 -149 387zM182 516q0 -191 119 -319q121 -127 299 -127q182 0 301 125q121 127 121 321q0 193 -121 320 t-301 127q-179 0 -299 -129q-119 -128 -119 -318zM309 1180l316 286l317 -286h-125l-192 184l-193 -184h-123z" />
<glyph unicode="&#xe3;" d="M80 516q0 232 149 387q150 156 371 156q149 0 262 -72q114 -71 148 -170v215h102v-1032h-102v215q-34 -102 -148 -172q-110 -70 -262 -70q-221 0 -371 156q-149 155 -149 387zM182 516q0 -191 119 -319q121 -127 299 -127q182 0 301 125q121 127 121 321q0 193 -121 320 t-301 127q-179 0 -299 -129q-119 -128 -119 -318zM326 1229q8 72 53.5 117t112.5 45q61 0 135 -45q79 -46 121 -46q82 0 104 97l68 -6q-21 -174 -168 -174q-64 0 -140 43q-74 45 -118 45q-83 0 -101 -80z" />
<glyph unicode="&#xe4;" d="M80 516q0 232 149 387q150 156 371 156q149 0 262 -72q114 -71 148 -170v215h102v-1032h-102v215q-34 -102 -148 -172q-110 -70 -262 -70q-221 0 -371 156q-149 155 -149 387zM182 516q0 -191 119 -319q121 -127 299 -127q182 0 301 125q121 127 121 321q0 193 -121 320 t-301 127q-179 0 -299 -129q-119 -128 -119 -318zM334 1307q0 31 21.5 52t52.5 21q29 0 50 -21t21 -52t-21 -52.5t-50 -21.5q-31 0 -52.5 21t-21.5 53zM753 1307.5q0 30.5 23 50.5q29 34 70.5 19.5t52.5 -52t-20 -72.5q-20 -20 -51 -20t-54 20q-21 24 -21 54.5z" />
<glyph unicode="&#xe5;" d="M80 516q0 232 149 387q150 156 371 156q149 0 262 -72q114 -71 148 -170v215h102v-1032h-102v215q-34 -102 -148 -172q-110 -70 -262 -70q-221 0 -371 156q-149 155 -149 387zM182 516q0 -191 119 -319q121 -127 299 -127q182 0 301 125q121 127 121 321q0 193 -121 320 t-301 127q-179 0 -299 -129q-119 -128 -119 -318zM455 1317q0 68 49.5 117t118.5 49q67 0 116 -50t49 -116q0 -69 -48 -118.5t-117 -49.5t-118.5 49.5t-49.5 118.5zM530 1317q0 -37 28 -64.5t65 -27.5q35 0 62.5 27.5t27.5 64.5q0 36 -27 63t-63 27q-37 0 -65 -27t-28 -63z " />
<glyph unicode="&#xe6;" horiz-adv-x="1849" d="M82 281q0 137 93 219t251 82h197q101 0 144.5 41.5t43.5 124.5q0 111 -82 163t-190 52q-195 0 -303 -170l-76 55q126 211 379 211q141 0 236 -63.5t118 -170.5q56 106 163 170t234 64q204 0 342 -156q140 -158 140 -387v-22h-877q3 -185 115 -306q109 -118 284 -118 q198 0 346 151l68 -65q-165 -183 -414 -183q-139 0 -248 64t-169 180q-43 -118 -156.5 -181t-284.5 -63q-164 0 -259 85t-95 223zM182 281q0 -205 271 -205q168 0 264 76t96 202q-10 78 -10 135q0 42 2 48q-56 -56 -182 -56h-197q-116 0 -180 -52t-64 -148zM903 586h760 q-15 161 -121 270q-104 107 -252 107q-155 0 -262 -107q-110 -110 -125 -270z" />
<glyph unicode="&#xe7;" horiz-adv-x="1056" d="M78 516q0 229 158 387q156 156 387 156q207 0 352 -127v-117q-148 148 -352 148q-192 0 -318 -129q-125 -125 -125 -318q0 -191 125 -319q127 -127 318 -127q205 0 352 147v-117q-139 -127 -352 -127h-2l-37 -84h12q52 0 87.5 -35.5t35.5 -91.5q0 -137 -170 -137 q-78 0 -135 45l30 58q53 -35 103 -35q37 0 61.5 18.5t24.5 48.5q0 82 -119 82q-25 0 -31 -2l60 140q-203 28 -334 176q-131 149 -131 360z" />
<glyph unicode="&#xe8;" horiz-adv-x="1144" d="M80 508v6q0 240 143 389q145 154 361 154q207 0 342 -150q137 -149 137 -364q0 -37 -2 -51h-881q3 -186 117 -306q112 -118 291 -118q127 0 228.5 44.5t158.5 114.5v-121q-150 -135 -387 -135q-222 0 -367 148q-141 150 -141 389zM184 584h770q-3 159 -110 266 q-108 111 -260 111q-162 0 -279 -111q-115 -109 -121 -266zM401 1427h134l122 -297h-82z" />
<glyph unicode="&#xe9;" horiz-adv-x="1144" d="M80 508v6q0 240 143 389q145 154 361 154q207 0 342 -150q137 -149 137 -364q0 -37 -2 -51h-881q3 -186 117 -306q112 -118 291 -118q127 0 228.5 44.5t158.5 114.5v-121q-150 -135 -387 -135q-222 0 -367 148q-141 150 -141 389zM184 584h770q-3 159 -110 266 q-108 111 -260 111q-162 0 -279 -111q-115 -109 -121 -266zM532 1130l123 297h133l-174 -297h-82z" />
<glyph unicode="&#xea;" horiz-adv-x="1144" d="M80 508v6q0 240 143 389q145 154 361 154q207 0 342 -150q137 -149 137 -364q0 -37 -2 -51h-881q3 -186 117 -306q112 -118 291 -118q127 0 228.5 44.5t158.5 114.5v-121q-150 -135 -387 -135q-222 0 -367 148q-141 150 -141 389zM184 584h770q-3 159 -110 266 q-108 111 -260 111q-162 0 -279 -111q-115 -109 -121 -266zM270 1180l316 286l315 -286h-123l-192 184l-193 -184h-123z" />
<glyph unicode="&#xeb;" horiz-adv-x="1144" d="M80 508v6q0 240 143 389q145 154 361 154q207 0 342 -150q137 -149 137 -364q0 -37 -2 -51h-881q3 -186 117 -306q112 -118 291 -118q127 0 228.5 44.5t158.5 114.5v-121q-150 -135 -387 -135q-222 0 -367 148q-141 150 -141 389zM184 584h770q-3 159 -110 266 q-108 111 -260 111q-162 0 -279 -111q-115 -109 -121 -266zM303 1307q0 31 21.5 52t52.5 21q29 0 50.5 -21t21.5 -52t-21.5 -52.5t-50.5 -21.5q-31 0 -52.5 21t-21.5 53zM722 1307.5q0 30.5 23 50.5q29 34 70.5 19.5t52.5 -52t-20 -72.5q-20 -20 -51 -20t-54 20 q-21 24 -21 54.5z" />
<glyph unicode="&#xec;" horiz-adv-x="356" d="M-31 1427h133l123 -297h-82zM127 0v1032h102v-1032h-102z" />
<glyph unicode="&#xed;" horiz-adv-x="356" d="M127 0v1032h102v-1032h-102zM129 1130l123 297h133l-174 -297h-82z" />
<glyph unicode="&#xee;" horiz-adv-x="356" d="M-80 1180l258 286l258 -286h-117l-141 178l-143 -178h-115zM127 0v1032h102v-1032h-102z" />
<glyph unicode="&#xef;" horiz-adv-x="356" d="M-25 1307q0 31 23 51q29 34 70 19.5t52 -52t-20 -72.5q-20 -20 -51 -20t-51 20q-23 23 -23 54zM127 0v1032h102v-1032h-102zM231 1307.5q0 30.5 23 50.5q29 34 70 19.5t52 -52t-20 -72.5q-20 -20 -50.5 -20t-53.5 20q-21 24 -21 54.5z" />
<glyph unicode="&#xf0;" horiz-adv-x="1093" d="M80 444q0 199 133 332q135 135 322 135q118 0 212.5 -50t143.5 -140q-25 123 -106.5 242t-192.5 208l-174 -167l-66 69l160 154q-132 89 -270 123l18 96q174 -44 326 -148l180 172l68 -71l-168 -158q234 -196 307 -463q43 -157 43 -299q0 -223 -127 -362 q-128 -140 -342 -140q-195 0 -332 134q-135 132 -135 333zM186 444q0 -155 103 -264q101 -104 258 -104t258 104q104 107 104 264q0 159 -104 263q-100 106 -258 106t-258 -106q-103 -106 -103 -263z" />
<glyph unicode="&#xf1;" horiz-adv-x="1107" d="M125 0v1032h102v-198q89 215 361 215q179 0 286 -113q111 -111 111 -299v-637h-102v616q0 153 -87.5 244.5t-230.5 91.5q-153 0 -245.5 -109t-92.5 -288v-555h-102zM272 1229q11 73 56 117.5t110 44.5q63 0 137 -45q76 -46 119 -46q87 0 105 97l69 -6q-21 -174 -170 -174 q-63 0 -139 43q-74 45 -117 45q-82 0 -100 -80z" />
<glyph unicode="&#xf2;" horiz-adv-x="1241" d="M78 516q0 232 155 387q156 156 388 156q229 0 385 -156q157 -157 157 -387t-157 -387q-156 -156 -385 -156q-232 0 -388 156q-155 155 -155 387zM180 516q0 -191 125 -319q127 -127 316 -127q186 0 313 127q127 130 127 319q0 191 -127 318q-126 129 -313 129 q-190 0 -316 -129q-125 -125 -125 -318zM416 1427h133l123 -297h-82z" />
<glyph unicode="&#xf3;" horiz-adv-x="1241" d="M78 516q0 232 155 387q156 156 388 156q229 0 385 -156q157 -157 157 -387t-157 -387q-156 -156 -385 -156q-232 0 -388 156q-155 155 -155 387zM180 516q0 -191 125 -319q127 -127 316 -127q186 0 313 127q127 130 127 319q0 191 -127 318q-126 129 -313 129 q-190 0 -316 -129q-125 -125 -125 -318zM565 1130l123 297h133l-172 -297h-84z" />
<glyph unicode="&#xf4;" horiz-adv-x="1241" d="M78 516q0 232 155 387q156 156 388 156q229 0 385 -156q157 -157 157 -387t-157 -387q-156 -156 -385 -156q-232 0 -388 156q-155 155 -155 387zM180 516q0 -191 125 -319q127 -127 316 -127q186 0 313 127q127 130 127 319q0 191 -127 318q-126 129 -313 129 q-190 0 -316 -129q-125 -125 -125 -318zM305 1180l316 286l315 -286h-123l-192 184l-193 -184h-123z" />
<glyph unicode="&#xf5;" horiz-adv-x="1241" d="M78 516q0 232 155 387q156 156 388 156q229 0 385 -156q157 -157 157 -387t-157 -387q-156 -156 -385 -156q-232 0 -388 156q-155 155 -155 387zM180 516q0 -191 125 -319q127 -127 316 -127q186 0 313 127q127 130 127 319q0 191 -127 318q-126 129 -313 129 q-190 0 -316 -129q-125 -125 -125 -318zM322 1229q11 73 55.5 117.5t109.5 44.5q62 0 136 -45q79 -46 120 -46q83 0 105 97l70 -6q-21 -174 -170 -174q-64 0 -140 43q-74 45 -116 45q-83 0 -101 -80z" />
<glyph unicode="&#xf6;" horiz-adv-x="1241" d="M78 516q0 232 155 387q156 156 388 156q229 0 385 -156q157 -157 157 -387t-157 -387q-156 -156 -385 -156q-232 0 -388 156q-155 155 -155 387zM180 516q0 -191 125 -319q127 -127 316 -127q186 0 313 127q127 130 127 319q0 191 -127 318q-126 129 -313 129 q-190 0 -316 -129q-125 -125 -125 -318zM338 1307q0 49 44.5 67t78.5 -16q22 -24 22.5 -51.5t-21.5 -50.5t-52 -23t-51 21t-21 53zM757 1307.5q0 30.5 23 50.5q29 34 70.5 19.5t52.5 -52t-20 -72.5q-20 -20 -51 -20t-54 20q-21 24 -21 54.5z" />
<glyph unicode="&#xf7;" horiz-adv-x="839" d="M94 666v96h651v-96h-651zM346 461q0 30 22 52t52 22t52 -22t22 -52t-22 -52t-52 -22q-31 0 -52.5 21.5t-21.5 52.5zM346 965q0 31 21.5 52t52.5 21q30 0 52 -21.5t22 -51.5t-22 -51t-52 -21q-31 0 -52.5 20.5t-21.5 51.5z" />
<glyph unicode="&#xf8;" horiz-adv-x="1241" d="M78 516q0 232 155 387q156 156 388 156q153 0 286 -80l80 106l74 -53l-80 -106q182 -159 182 -410q0 -230 -157 -387q-156 -156 -385 -156q-150 0 -281 76l-86 -117l-74 56l84 114q-186 155 -186 414zM180 516q0 -205 144 -334l526 717q-107 64 -229 64q-190 0 -316 -129 q-125 -125 -125 -318zM397 129q95 -59 224 -59q186 0 313 127q127 130 127 319q0 203 -137 328z" />
<glyph unicode="&#xf9;" horiz-adv-x="1077" d="M113 391v641h102v-631q0 -158 85 -242.5t239 -84.5t238.5 84.5t84.5 242.5v631h103v-641q0 -196 -114.5 -305t-311.5 -109t-311.5 109t-114.5 305zM348 1427h133l123 -297h-84z" />
<glyph unicode="&#xfa;" horiz-adv-x="1077" d="M113 391v641h102v-631q0 -158 85 -242.5t239 -84.5t238.5 84.5t84.5 242.5v631h103v-641q0 -196 -114.5 -305t-311.5 -109t-311.5 109t-114.5 305zM473 1130l123 297h133l-174 -297h-82z" />
<glyph unicode="&#xfb;" horiz-adv-x="1077" d="M113 391v641h102v-631q0 -158 85 -242.5t239 -84.5t238.5 84.5t84.5 242.5v631h103v-641q0 -196 -114.5 -305t-311.5 -109t-311.5 109t-114.5 305zM223 1180l316 286l315 -286h-123l-192 184l-193 -184h-123z" />
<glyph unicode="&#xfc;" horiz-adv-x="1077" d="M113 391v641h102v-631q0 -158 85 -242.5t239 -84.5t238.5 84.5t84.5 242.5v631h103v-641q0 -196 -114.5 -305t-311.5 -109t-311.5 109t-114.5 305zM256 1307q0 49 44.5 67t78.5 -16q22 -24 22.5 -51.5t-21.5 -50.5t-52 -23t-51 21t-21 53zM675 1307.5q0 30.5 23 50.5 q29 34 70.5 19.5t52.5 -52t-20 -72.5q-20 -20 -51 -20t-54 20q-21 24 -21 54.5z" />
<glyph unicode="&#xfd;" horiz-adv-x="1028" d="M39 1032h106l357 -907l381 907h108l-606 -1427h-104l168 395zM453 1130l122 297h134l-174 -297h-82z" />
<glyph unicode="&#xfe;" d="M125 -395v1822h102v-610q33 98 146 170q116 72 264 72q219 0 369 -156q151 -157 151 -387t-151 -387q-150 -156 -369 -156q-151 0 -264 70q-112 71 -146 172v-610h-102zM215 516q0 -194 121 -321q119 -125 301 -125q178 0 299 127q121 130 121 319q0 188 -121 318 q-120 129 -299 129q-180 0 -301 -127t-121 -320z" />
<glyph unicode="&#xff;" horiz-adv-x="1028" d="M39 1032h106l357 -907l381 907h108l-606 -1427h-104l168 395zM219 1307.5q0 30.5 23 50.5q29 34 70 19.5t52 -52t-20 -72.5q-20 -20 -50.5 -20t-53.5 20q-21 24 -21 54.5zM641 1307q0 31 21.5 52t52.5 21q29 0 50 -21t21 -52t-21 -52.5t-50 -21.5q-31 0 -52.5 21 t-21.5 53z" />
<glyph unicode="&#x152;" horiz-adv-x="2277" d="M104 713q0 313 213 526t523 213q217 0 377 -100q164 -100 241 -265v340h682v-98h-575v-524h536v-100h-536v-607h589v-98h-696v344q-74 -169 -239 -269t-379 -100q-312 0 -523 211q-213 213 -213 527zM209 713q0 -275 180 -455q182 -182 451 -182q265 0 444 182 q178 181 178 455q0 273 -178 454q-179 185 -444 185q-269 0 -451 -185q-180 -180 -180 -454z" />
<glyph unicode="&#x153;" horiz-adv-x="2121" d="M78 516q0 232 155 387q156 156 385 156q167 0 298 -88t188 -238q56 150 178 238t277 88q210 0 354 -156q147 -153 147 -379q0 -20 -2 -30h-903q3 -189 117 -306q114 -114 295 -114q221 0 358 149l70 -71q-167 -179 -428 -179q-165 0 -288 85t-177 235 q-60 -147 -189.5 -233.5t-294.5 -86.5q-229 0 -385 156q-155 155 -155 387zM180 516q0 -191 125 -319q127 -127 313 -127q187 0 314 127q125 128 125 319q0 193 -125 318q-126 129 -314 129q-187 0 -313 -129q-125 -125 -125 -318zM1163 584h789q-15 161 -127 270t-266 109 q-156 0 -269 -107q-112 -109 -127 -272z" />
<glyph unicode="&#x178;" horiz-adv-x="1224" d="M61 1427h119l432 -718l432 718h119l-497 -825v-602h-107v602zM330 1622q0 31 21 51.5t52 20.5q30 0 52 -21t22 -51t-22 -52t-52 -22q-31 0 -52 21.5t-21 52.5zM750 1622.5q0 30.5 20 50.5q19 19 43 21.5t43 -9.5t31.5 -30.5t9.5 -42.5t-23 -43q-20 -20 -50.5 -20 t-53.5 20q-20 23 -20 53.5z" />
<glyph unicode="&#x2c6;" horiz-adv-x="1263" d="M315 1180l316 286l317 -286h-125l-192 184l-193 -184h-123z" />
<glyph unicode="&#x2dc;" horiz-adv-x="1206" d="M309 1290q8 72 53.5 117t112.5 45q61 0 135 -45q77 -45 121 -45q84 0 105 96l67 -6q-21 -176 -168 -176q-65 0 -139 45t-119 45q-82 0 -100 -82z" />
<glyph unicode="&#x2000;" horiz-adv-x="931" />
<glyph unicode="&#x2001;" horiz-adv-x="1862" />
<glyph unicode="&#x2002;" horiz-adv-x="931" />
<glyph unicode="&#x2003;" horiz-adv-x="1862" />
<glyph unicode="&#x2004;" horiz-adv-x="620" />
<glyph unicode="&#x2005;" horiz-adv-x="465" />
<glyph unicode="&#x2006;" horiz-adv-x="310" />
<glyph unicode="&#x2007;" horiz-adv-x="310" />
<glyph unicode="&#x2008;" horiz-adv-x="232" />
<glyph unicode="&#x2009;" horiz-adv-x="372" />
<glyph unicode="&#x200a;" horiz-adv-x="103" />
<glyph unicode="&#x2010;" horiz-adv-x="716" d="M92 489v97h535v-97h-535z" />
<glyph unicode="&#x2011;" horiz-adv-x="716" d="M92 489v97h535v-97h-535z" />
<glyph unicode="&#x2012;" horiz-adv-x="716" d="M92 489v97h535v-97h-535z" />
<glyph unicode="&#x2013;" horiz-adv-x="948" d="M92 489v97h766v-97h-766z" />
<glyph unicode="&#x2014;" horiz-adv-x="1488" d="M92 489v97h1307v-97h-1307z" />
<glyph unicode="&#x2018;" horiz-adv-x="350" d="M35 911l256 516h86l-203 -516h-139z" />
<glyph unicode="&#x2019;" horiz-adv-x="362" d="M-2 911l203 516h139l-256 -516h-86z" />
<glyph unicode="&#x201a;" horiz-adv-x="360" d="M-49 -262l192 489h138l-244 -489h-86z" />
<glyph unicode="&#x201c;" horiz-adv-x="647" d="M35 911l256 516h86l-203 -516h-139zM330 911l256 516h86l-203 -516h-139z" />
<glyph unicode="&#x201d;" horiz-adv-x="657" d="M-2 911l203 516h139l-256 -516h-86zM293 911l205 516h139l-256 -516h-88z" />
<glyph unicode="&#x201e;" horiz-adv-x="641" d="M-49 -262l192 489h138l-244 -489h-86zM262 -262l193 489h137l-244 -489h-86z" />
<glyph unicode="&#x2022;" horiz-adv-x="458" d="M108 518q0 51 35 86q37 37 86 37t84 -37q37 -35 37 -86t-37 -86q-35 -35 -84 -35t-86 35q-35 35 -35 86z" />
<glyph unicode="&#x2026;" horiz-adv-x="980" d="M102 63q0 30 22 52t52 22t52 -22t22 -52t-22 -51.5t-52 -21.5q-31 0 -52.5 21t-21.5 52zM418 63q0 31 21.5 52.5t52.5 21.5q29 0 50 -21.5t21 -52.5t-21 -52t-50 -21q-31 0 -52.5 20.5t-21.5 52.5zM736.5 82.5q15.5 41.5 52 52t69.5 -19.5q34 -29 19.5 -70t-51.5 -52.5 t-72 17.5q-33 31 -17.5 72.5z" />
<glyph unicode="&#x202f;" horiz-adv-x="372" />
<glyph unicode="&#x2039;" horiz-adv-x="491" d="M80 518l225 359h109l-226 -359l226 -358h-109z" />
<glyph unicode="&#x203a;" horiz-adv-x="491" d="M80 160l225 358l-225 359h108l226 -359l-226 -358h-108z" />
<glyph unicode="&#x205f;" horiz-adv-x="465" />
<glyph unicode="&#x20ac;" horiz-adv-x="1538" d="M49 514l41 96h164q-6 44 -6 103q0 77 8 121h-162l41 96h139q65 235 244 377q183 145 416 145q293 0 496 -215l-76 -68q-168 183 -420 183q-194 0 -344 -117q-146 -113 -205 -305h590l-41 -96h-569q-11 -75 -11 -121q0 -51 6 -103h484l-41 -96h-422q53 -197 201 -319 q151 -121 352 -121q265 0 432 188l76 -69q-206 -218 -508 -218q-241 0 -422 150q-184 152 -242 389h-221z" />
<glyph unicode="&#x2122;" horiz-adv-x="1662" d="M53 1329v98h609v-98h-254v-661h-103v661h-252zM756 668v762h10l379 -453l379 453h12v-762h-102v506l-289 -351l-287 351v-506h-102z" />
<glyph unicode="&#x25fc;" horiz-adv-x="1034" d="M0 0v1034h1034v-1034h-1034z" />
</font>
</defs>
</svg>
